<svg width="643" height="356" xmlns="http://www.w3.org/2000/svg" xmlns:xlink="http://www.w3.org/1999/xlink" overflow="hidden"><defs><clipPath id="clip0"><rect x="90" y="183" width="643" height="356"/></clipPath><clipPath id="clip1"><rect x="597" y="301" width="96" height="96"/></clipPath><clipPath id="clip2"><rect x="597" y="301" width="96" height="96"/></clipPath><clipPath id="clip3"><rect x="597" y="301" width="96" height="96"/></clipPath></defs><g clip-path="url(#clip0)" transform="translate(-90 -183)"><text fill="#FED136" font-family="Freestyle Script,Freestyle Script_MSFontService,sans-serif" font-weight="700" font-size="153" transform="matrix(0.998596 -0.0529666 0.0529666 0.998596 192.313 391)">Postmeter </text><g clip-path="url(#clip1)"><g clip-path="url(#clip2)"><g clip-path="url(#clip3)"><path d="M617 314 611 314 611 384 680 384 680 378 617 378 617 314Z" fill="#FED136"/><path d="M680 372 665 372 665 314 680 314Z" fill="#FED136"/><path d="M659 372 644 372 644 334 659 334Z" fill="#FED136"/><path d="M638 372 623 372 623 352 638 352Z" fill="#FED136"/><path d="M655 327.74 655 314 641.26 314 646.72 319.46 622.59 343.59 625.41 346.41 649.54 322.29 655 327.74Z" fill="#FED136"/></g></g></g></g></svg>