<svg width="212" height="60" xmlns="http://www.w3.org/2000/svg" xmlns:xlink="http://www.w3.org/1999/xlink" overflow="hidden"><defs><clipPath id="clip0"><rect x="154" y="141" width="212" height="60"/></clipPath><clipPath id="clip1"><rect x="155" y="142" width="210" height="58"/></clipPath><clipPath id="clip2"><rect x="155" y="142" width="210" height="58"/></clipPath><clipPath id="clip3"><rect x="322" y="156" width="40" height="39"/></clipPath><clipPath id="clip4"><rect x="322" y="156" width="40" height="39"/></clipPath><clipPath id="clip5"><rect x="322" y="156" width="40" height="39"/></clipPath></defs><g clip-path="url(#clip0)" transform="translate(-154 -141)"><g clip-path="url(#clip1)"><g clip-path="url(#clip2)"><text fill="#FED136" font-family="Freestyle Script,Freestyle Script_MSFontService,sans-serif" font-weight="700" font-size="153" transform="matrix(0.40088 -0.021334 0.0212631 0.402217 160.19 193)">Postmeter</text><g clip-path="url(#clip3)"><g clip-path="url(#clip4)"><g clip-path="url(#clip5)"><path d="M247.69 126.053 245.282 126.053 245.282 154.154 272.981 154.154 272.981 151.746 247.69 151.746 247.69 126.053Z" fill="#FED136" transform="matrix(1 0 0 1.00334 82.9877 35.0272)"/><path d="M272.981 149.337 266.96 149.337 266.96 126.053 272.981 126.053Z" fill="#FED136" transform="matrix(1 0 0 1.00334 82.9877 35.0272)"/><path d="M264.551 149.337 258.529 149.337 258.529 134.082 264.551 134.082Z" fill="#FED136" transform="matrix(1 0 0 1.00334 82.9877 35.0272)"/><path d="M256.121 149.337 250.099 149.337 250.099 141.308 256.121 141.308Z" fill="#FED136" transform="matrix(1 0 0 1.00334 82.9877 35.0272)"/><path d="M262.945 131.569 262.945 126.053 257.429 126.053 259.621 128.245 249.935 137.932 251.067 139.064 260.753 129.381 262.945 131.569Z" fill="#FED136" transform="matrix(1 0 0 1.00334 82.9877 35.0272)"/></g></g></g></g></g></g></svg>