<svg width="597" height="324" xmlns="http://www.w3.org/2000/svg" xmlns:xlink="http://www.w3.org/1999/xlink" overflow="hidden"><defs><clipPath id="clip0"><rect x="97" y="198" width="597" height="324"/></clipPath><clipPath id="clip1"><rect x="597" y="290" width="96" height="96"/></clipPath><clipPath id="clip2"><rect x="597" y="290" width="96" height="96"/></clipPath><clipPath id="clip3"><rect x="597" y="290" width="96" height="96"/></clipPath></defs><g clip-path="url(#clip0)" transform="translate(-97 -198)"><text fill="#FED136" font-family="Freestyle Script,Freestyle Script_MSFontService,sans-serif" font-weight="700" font-size="153" transform="translate(189.845 378)">Postmeter</text><g clip-path="url(#clip1)"><g clip-path="url(#clip2)"><g clip-path="url(#clip3)"><path d="M617 303 611 303 611 373 680 373 680 367 617 367 617 303Z" fill="#FED136"/><path d="M680 361 665 361 665 303 680 303Z" fill="#FED136"/><path d="M659 361 644 361 644 323 659 323Z" fill="#FED136"/><path d="M638 361 623 361 623 341 638 341Z" fill="#FED136"/><path d="M655 316.74 655 303 641.26 303 646.72 308.46 622.59 332.59 625.41 335.41 649.54 311.29 655 316.74Z" fill="#FED136"/></g></g></g></g></svg>